<?xml version="1.0" standalone="no"?>
<!DOCTYPE svg PUBLIC "-//W3C//DTD SVG 20010904//EN"
 "http://www.w3.org/TR/2001/REC-SVG-20010904/DTD/svg10.dtd">
<svg version="1.0" xmlns="http://www.w3.org/2000/svg"
 width="625.000000pt" height="625.000000pt" viewBox="0 0 625.000000 625.000000"
 preserveAspectRatio="xMidYMid meet">
<metadata>
Created by potrace 1.14, written by Peter Selinger 2001-2017
</metadata>
<g transform="translate(0.000000,625.000000) scale(0.100000,-0.100000)"
fill="#000000" stroke="none">
<path d="M2957 5804 c-1 -1 -37 -4 -80 -8 -42 -4 -101 -11 -130 -17 -28 -5
-67 -12 -86 -15 -18 -3 -42 -8 -52 -10 -11 -2 -28 -6 -39 -8 -49 -11 -202 -62
-278 -92 -80 -33 -232 -104 -242 -114 -3 -3 -18 -12 -35 -20 -16 -8 -36 -21
-43 -27 -7 -7 -17 -13 -21 -13 -7 0 -146 -96 -202 -140 -123 -96 -271 -249
-372 -385 -37 -49 -74 -98 -82 -107 -8 -10 -15 -20 -15 -23 0 -3 -15 -29 -33
-58 -44 -69 -147 -278 -154 -314 -14 -67 6 -96 95 -138 61 -29 181 -41 205
-21 7 6 26 43 42 81 16 39 33 72 37 73 4 2 8 10 8 17 0 25 133 238 200 319 89
108 202 221 301 301 50 40 118 85 128 85 6 0 11 4 11 9 0 5 15 14 33 22 17 7
34 16 37 20 16 23 249 109 335 125 22 3 49 9 60 11 16 4 157 14 200 15 26 0
200 -19 200 -22 0 -1 12 -3 26 -5 15 -2 63 -13 108 -25 80 -22 81 -22 118 -3
81 42 135 232 107 380 -12 62 -59 89 -170 98 -81 7 -213 12 -217 9z"/>
<path d="M4228 5466 c-21 -7 -58 -29 -83 -47 -118 -90 -123 -298 -10 -398 56
-49 100 -64 190 -64 117 -1 191 37 235 121 47 90 16 264 -59 330 -65 58 -199
86 -273 58z"/>
<path d="M2908 4595 c-2 -2 -25 -6 -53 -9 -148 -19 -367 -128 -471 -234 -159
-163 -264 -355 -291 -531 -14 -94 -6 -262 16 -338 5 -18 7 -33 4 -33 -3 0 0
-7 7 -15 7 -8 10 -15 7 -15 -7 0 46 -136 74 -192 31 -62 115 -161 255 -302 71
-72 154 -177 154 -195 0 -5 4 -11 9 -13 11 -4 94 -168 85 -168 -4 0 -2 -6 4
-12 12 -16 51 -140 58 -188 3 -19 9 -52 14 -72 4 -20 7 -99 6 -174 -1 -125 0
-139 18 -156 55 -51 222 -53 279 -4 21 18 28 35 33 82 6 51 9 279 4 279 -1 0
-3 11 -5 25 -11 105 -42 235 -79 332 -29 79 -105 232 -117 236 -5 2 -9 9 -9
15 0 28 -173 226 -352 406 -63 63 -119 215 -123 334 -6 169 90 356 227 443 21
13 72 35 114 49 64 21 91 24 183 22 94 -3 115 -7 164 -31 64 -31 87 -49 155
-120 26 -27 60 -54 75 -61 33 -14 129 -4 197 22 48 17 123 61 128 74 2 4 12
17 23 30 10 12 19 27 20 33 6 74 4 91 -19 134 -53 102 -253 254 -387 294 -84
26 -128 37 -165 44 -38 6 -237 13 -242 9z"/>
<path d="M4715 4407 c-55 -22 -75 -37 -94 -75 -22 -43 -21 -116 2 -187 3 -11
8 -31 11 -45 2 -14 9 -47 15 -73 13 -56 24 -444 12 -451 -4 -3 -8 -28 -10 -55
-1 -28 -11 -85 -22 -126 -20 -78 -89 -277 -107 -311 -6 -10 -25 -50 -42 -89
-17 -38 -45 -87 -61 -110 -17 -22 -88 -122 -158 -222 -127 -179 -183 -280
-214 -378 -39 -125 -45 -163 -61 -380 -3 -27 -5 -50 -6 -50 -1 0 -3 -34 -4
-75 -5 -107 -31 -208 -84 -320 -30 -64 -91 -164 -103 -168 -5 -2 -9 -8 -9 -14
0 -14 -160 -172 -183 -181 -9 -3 -17 -10 -17 -15 0 -14 -209 -115 -260 -126
-14 -3 -41 -10 -60 -15 -91 -28 -261 -31 -388 -6 -24 4 -109 32 -137 44 -11 5
-35 14 -52 21 -18 7 -33 17 -33 23 0 6 -3 7 -6 4 -4 -4 -19 2 -34 13 -16 11
-31 20 -35 20 -31 0 -285 255 -334 335 -22 36 -95 66 -161 66 -77 1 -131 -15
-181 -54 -60 -46 -77 -84 -73 -162 3 -79 33 -141 111 -238 197 -244 431 -391
743 -466 301 -73 689 -17 945 136 201 120 331 241 482 449 48 64 151 297 167
377 12 54 15 68 20 75 3 5 8 28 11 53 3 24 8 60 11 79 2 19 7 89 10 155 11
222 64 393 163 515 44 56 45 56 81 105 16 22 33 45 37 50 51 68 139 212 174
285 52 105 72 150 90 200 27 73 63 182 65 195 0 6 4 17 7 25 6 15 28 118 33
155 1 11 5 34 8 50 16 89 20 157 20 320 0 206 -13 339 -48 504 -10 47 -47 107
-79 129 -37 25 -110 29 -162 9z"/>
</g>
</svg>
