<svg xmlns="http://www.w3.org/2000/svg" fill-rule="evenodd" clip-rule="evenodd" image-rendering="optimizeQuality"
     shape-rendering="geometricPrecision" text-rendering="geometricPrecision" viewBox="0 0 519 625">
    <path fill="#07b4d8"
          d="M238 45c11-1 22 0 33 1 4 1 8 3 10 7 3 13 1 25-6 37-2 3-5 4-9 5-44-14-83-7-119 20-28 22-48 49-60 81-12 2-22-1-30-8-1-3-2-6-1-8A215 215 0 0 1 238 45Z"/>
    <path fill="#0bb4d8" d="M374 77c23 0 33 12 31 36-3 9-9 14-18 16-16 3-28-3-34-17-3-18 3-30 21-35Z"/>
    <path fill="#07b4d8"
          d="M319 203c-1 4-2 8-1 13l-4 5c-10 7-20 10-31 9l-5-3c-8-10-17-17-29-19v-3h-15v3c-24 4-38 18-43 42-2 13 1 26 8 39l32 34c23 31 32 66 27 105l-4 4c-8 3-16 3-24 0l-5-4c4-33-5-63-25-88-11-11-22-22-31-34-23-44-17-83 18-118 29-24 62-29 98-15 11 6 21 13 30 23l4 7Z"/>
    <path fill="#07b4d8"
          d="M224 573v-3l-9 1c-34-8-60-26-80-54-5-8-7-16-5-25 5-8 11-12 20-13 6-1 13 0 19 4 8 11 18 21 28 31 32 23 66 26 102 7 26-17 41-40 46-71l2-8-1-8c0-22 5-43 17-61l29-41c9-18 16-36 20-55l2-12-1-38-5-22c-3-13 3-20 16-22 4-1 9 0 13 4 3 3 5 8 6 13 14 71-2 134-49 189-7 11-12 24-14 38 1 62-26 108-81 136-25 10-50 13-75 10Z"/>
    <path fill="#07b4d8" d="M319 203c1 4 1 8-1 13-1-5 0-9 1-13Z"/>
    <path fill="#07b4d8" d="M249 208h-15v-3h15v3Z"/>
    <path fill="#07b4d8" d="m414 265-2 12c0-5 0-9 2-12Z"/>
    <path fill="#07b4d8" d="m346 434 1 8-2 8c-1-6 0-11 1-16Z"/>
    <path fill="#07b4d8" d="m224 573-9-2 9-1v3Z"/>
</svg>